HIERARCHY
ROOT Hips
{
  OFFSET 0.168689 16.6858 -0.0197168
  CHANNELS 6 Xposition Yposition Zposition Zrotation Xrotation Yrotation
  JOINT LHipJoint
  {
    OFFSET 0 0 0
    CHANNELS 6 Xposition Yposition Zposition Zrotation Xrotation Yrotation
    JOINT LeftUpLeg
    {
      OFFSET 1.36306 -1.79463 0.83929
      CHANNELS 6 Xposition Yposition Zposition Zrotation Xrotation Yrotation
      JOINT LeftLeg
      {
        OFFSET 2.44811 -6.72613 0
        CHANNELS 6 Xposition Yposition Zposition Zrotation Xrotation Yrotation
        JOINT LeftFoot
        {
          OFFSET 2.5622 -7.03959 0
          CHANNELS 6 Xposition Yposition Zposition Zrotation Xrotation Yrotation
          JOINT LeftToeBase
          {
            OFFSET 0.15764 -0.43311 2.32255
            CHANNELS 6 Xposition Yposition Zposition Zrotation Xrotation Yrotation
            End Site
            {
              OFFSET 0 0 0
            }
          }
        }
      }
    }
  }
  JOINT RHipJoint
  {
    OFFSET 0 0 0
    CHANNELS 6 Xposition Yposition Zposition Zrotation Xrotation Yrotation
    JOINT RightUpLeg
    {
      OFFSET -1.30552 -1.79463 0.83929
      CHANNELS 6 Xposition Yposition Zposition Zrotation Xrotation Yrotation
      JOINT RightLeg
      {
        OFFSET -2.54253 -6.98555 0
        CHANNELS 6 Xposition Yposition Zposition Zrotation Xrotation Yrotation
        JOINT RightFoot
        {
          OFFSET -2.56826 -7.05623 0
          CHANNELS 6 Xposition Yposition Zposition Zrotation Xrotation Yrotation
          JOINT RightToeBase
          {
            OFFSET -0.16473 -0.45259 2.36315
            CHANNELS 6 Xposition Yposition Zposition Zrotation Xrotation Yrotation
            End Site
            {
              OFFSET 0 0 0
            }
          }
        }
      }
    }
  }
  JOINT LowerBack
  {
    OFFSET 0 0 0
    CHANNELS 6 Xposition Yposition Zposition Zrotation Xrotation Yrotation
    JOINT Spine
    {
      OFFSET 0.02827 2.03559 -0.19338
      CHANNELS 6 Xposition Yposition Zposition Zrotation Xrotation Yrotation
      JOINT Spine1
      {
        OFFSET 0.05672 2.04885 -0.04275
        CHANNELS 6 Xposition Yposition Zposition Zrotation Xrotation Yrotation
        JOINT Neck
        {
          OFFSET 0 0 0
          CHANNELS 6 Xposition Yposition Zposition Zrotation Xrotation Yrotation
          JOINT Neck1
          {
            OFFSET -0.05417 1.74624 0.17202
            CHANNELS 6 Xposition Yposition Zposition Zrotation Xrotation Yrotation
            JOINT Head
            {
              OFFSET 0.10407 1.76136 -0.12397
              CHANNELS 6 Xposition Yposition Zposition Zrotation Xrotation Yrotation
              End Site
              {
                OFFSET 0 0 0
              }
            }
          }
        }
        JOINT LeftShoulder
        {
          OFFSET 0 0 0
          CHANNELS 6 Xposition Yposition Zposition Zrotation Xrotation Yrotation
          JOINT LeftArm
          {
            OFFSET 3.36241 1.20089 -0.31121
            CHANNELS 6 Xposition Yposition Zposition Zrotation Xrotation Yrotation
            JOINT LeftForeArm
            {
              OFFSET 4.983 0 0
              CHANNELS 6 Xposition Yposition Zposition Zrotation Xrotation Yrotation
              JOINT LeftHand
              {
                OFFSET 3.48356 0 0
                CHANNELS 6 Xposition Yposition Zposition Zrotation Xrotation Yrotation
                JOINT LeftFingerBase
                {
                  OFFSET 0 0 0
                  CHANNELS 6 Xposition Yposition Zposition Zrotation Xrotation Yrotation
                  JOINT LeftHandIndex1
                  {
                    OFFSET 0.71526 0 0
                    CHANNELS 6 Xposition Yposition Zposition Zrotation Xrotation Yrotation
                    End Site
                    {
                      OFFSET 0 0 0
                    }
                  }
                }
                JOINT LThumb
                {
                  OFFSET 0 0 0
                  CHANNELS 6 Xposition Yposition Zposition Zrotation Xrotation Yrotation
                  End Site
                  {
                    OFFSET 0 0 0
                  }
                }
              }
            }
          }
        }
        JOINT RightShoulder
        {
          OFFSET 0 0 0
          CHANNELS 6 Xposition Yposition Zposition Zrotation Xrotation Yrotation
          JOINT RightArm
          {
            OFFSET -3.1366 1.37405 -0.40465
            CHANNELS 6 Xposition Yposition Zposition Zrotation Xrotation Yrotation
            JOINT RightForeArm
            {
              OFFSET -5.2419 0 0
              CHANNELS 6 Xposition Yposition Zposition Zrotation Xrotation Yrotation
              JOINT RightHand
              {
                OFFSET -3.44417 0 0
                CHANNELS 6 Xposition Yposition Zposition Zrotation Xrotation Yrotation
                JOINT RightFingerBase
                {
                  OFFSET 0 0 0
                  CHANNELS 6 Xposition Yposition Zposition Zrotation Xrotation Yrotation
                  JOINT RightHandIndex1
                  {
                    OFFSET -0.62253 0 0
                    CHANNELS 6 Xposition Yposition Zposition Zrotation Xrotation Yrotation
                    End Site
                    {
                      OFFSET 0 0 0
                    }
                  }
                }
                JOINT RThumb
                {
                  OFFSET 0 0 0
                  CHANNELS 6 Xposition Yposition Zposition Zrotation Xrotation Yrotation
                  End Site
                  {
                    OFFSET 0 0 0
                  }
                }
              }
            }
          }
        }
      }
    }
  }
}
MOTION
Frames:	7
Frame Time:	0.0416667
0.167662 16.6853 0.0326439 -0.0111396 8.63947 -1.34464 0 0 0 -0.299681 5.35791 18.0368 1.36306 -1.79463 0.83929 -19.81 -46.5209 3.92631 2.44811 -6.72613 -1.77636e-015 11.443 40.7112 6.65488 2.5622 -7.03959 4.44089e-016 1.10497 -5.12956 -5.76027 0.15764 -0.43311 2.32255 1.39149e-015 5.96354e-016 -0 0 0 0 -8.85582 0.425549 -20.6242 -1.30552 -1.79463 0.83929 49.5469 -26.2659 22.7275 -2.54253 -6.98555 0 -8.30162 54.8207 -13.4222 -2.56826 -7.05623 -2.77556e-016 2.38564 -2.9725 7.00156 -0.16473 -0.45259 2.36315 0.00606296 0.00719137 -0.00231567 0 0 0 -1.93281 -2.12354 0.12108 0.02827 2.03559 -0.19338 10.205 19.9351 0.293657 0.05672 2.04885 -0.04275 -2.85168 -5.16845 0.553862 0 0 0 -1.00718 -9.92052 -0.0272236 -0.05417 1.74624 0.17202 2.43773 26.9011 -1.27782 0.10407 1.76136 -0.12397 0.0468547 0.00650896 -0.0245101 0 0 0 20.1572 -4.68218 25.684 3.36241 1.20089 -0.31121 -93.0623 10.168 -4.11835 4.983 1.77636e-015 0 -16.8868 14.0264 -32.5433 3.48356 -8.88178e-016 0 -3.22629 -1.05565 2.4891 0 0 0 -0.121028 -1.13371e-006 -1.14814 0.71526 8.88178e-016 0 -8.82781e-032 7.95139e-016 6.36111e-015 0 0 0 -8.82781e-032 -7.95139e-016 -6.36111e-015 0 0 0 -28.1684 -5.05799 -32.5015 -3.1366 1.37405 -0.40465 107.254 2.51612 6.13459 -5.2419 0 2.22045e-016 7.56865 17.7899 2.16148 -3.44417 -8.88178e-016 0 7.77686 1.58783 7.7842 0 0 0 0.388195 -3.8339e-006 2.4941 -0.62253 0 -4.44089e-016 -4.17485e-006 2.99803e-006 3.04112e-006 0 0 0 1.49089e-015 0 -3.18055e-015 
0.168689 16.6858 -0.0197168 -0.0736426 8.49757 -1.56939 0 0 0 -0.299681 5.35791 18.0368 1.36306 -1.79463 0.83929 -19.707 -46.5447 3.93815 2.44811 -6.72613 0 11.4961 40.6236 6.80827 2.5622 -7.03959 0 1.11132 -4.95545 -5.69922 0.15764 -0.43311 2.32255 -1.39149e-015 -1.78906e-015 -1.27222e-014 0 0 0 -8.85582 0.425549 -20.6242 -1.30552 -1.79463 0.83929 49.6842 -26.2554 22.7469 -2.54253 -6.98555 8.88178e-016 -8.31706 54.8064 -13.208 -2.56826 -7.05623 -7.77156e-016 2.23417 -2.7372 6.89447 -0.16473 -0.45259 2.36315 0.00606296 0.00719137 -0.00231567 0 0 0 -1.93281 -2.12354 0.12108 0.02827 2.03559 -0.19338 10.2352 19.4763 0.436085 0.05672 2.04885 -0.04275 -2.95972 -5.2166 0.632398 0 0 0 -1.078 -9.98593 -0.00100894 -0.05417 1.74624 0.17202 2.34716 26.8372 -1.23168 0.10407 1.76136 -0.12397 0.236001 0.438118 0.0122428 0 0 0 20.1079 -4.86953 25.8794 3.36241 1.20089 -0.31121 -92.9335 9.97155 -2.99631 4.983 -1.77636e-015 0 -16.5884 14.8056 -32.9128 3.48356 0 -8.88178e-016 -3.02106 -1.11362 2.74224 0 0 0 -0.121028 -1.13371e-006 -1.14814 0.71526 8.88178e-016 0 -3.97569e-016 0 -3.18055e-015 0 0 0 0 3.97569e-016 -0 0 0 0 -28.7186 -5.39783 -32.3731 -3.1366 1.37405 -0.40465 107.112 1.91138 5.10222 -5.2419 0 4.44089e-016 7.56888 17.8819 2.13551 -3.44417 0 -2.22045e-016 7.86002 1.58781 7.79112 0 0 0 0.388195 -3.8339e-006 2.4941 -0.62253 4.44089e-016 0 -4.17485e-006 2.99803e-006 3.04112e-006 0 0 0 -6.95746e-016 0 -1.59028e-015 
0.167433 16.6831 -0.0822083 -0.157327 8.13153 -1.80666 0 0 0 -0.299681 5.35791 18.0368 1.36306 -1.79463 0.83929 -19.428 -46.4297 4.0842 2.44811 -6.72613 1.77636e-015 11.5779 40.5975 6.93858 2.5622 -7.03959 0 1.10692 -4.79178 -5.64143 0.15764 -0.43311 2.32255 -8.94531e-016 -1.39149e-015 -0 0 0 0 -8.85582 0.425549 -20.6242 -1.30552 -1.79463 0.83929 49.7203 -26.0898 22.6416 -2.54253 -6.98555 0 -8.31438 54.8144 -13.0206 -2.56826 -7.05623 -4.44089e-016 2.06623 -2.49944 6.78577 -0.16473 -0.45259 2.36315 0.00606296 0.00719137 -0.00231567 0 0 0 -1.93281 -2.12354 0.12108 0.02827 2.03559 -0.19338 10.2975 19.15 0.575535 0.05672 2.04885 -0.04275 -3.07722 -5.27493 0.716792 0 0 0 -1.12847 -10.1344 0.0211571 -0.05417 1.74624 0.17202 2.2788 26.6902 -1.19017 0.10407 1.76136 -0.12397 0.368597 0.757996 0.0327097 0 0 0 20.0072 -5.04798 26.0905 3.36241 1.20089 -0.31121 -92.6303 9.60443 -1.38596 4.983 -1.77636e-015 4.44089e-016 -16.2019 15.8212 -33.4673 3.48356 8.88178e-016 -8.88178e-016 -2.92977 -1.12203 2.79043 0 0 0 -0.121028 -1.13371e-006 -1.14814 0.71526 0 8.88178e-016 -5.96354e-016 -7.95139e-016 -0 0 0 0 3.97569e-016 7.95139e-016 -3.18055e-015 0 0 0 -28.9865 -5.77065 -32.2762 -3.1366 1.37405 -0.40465 106.706 1.22675 4.17808 -5.2419 0 2.22045e-016 7.56968 18.1144 2.06976 -3.44417 0 0 7.72112 1.58862 7.80833 0 0 0 0.388195 -3.8339e-006 2.4941 -0.62253 0 4.44089e-016 -4.17485e-006 2.99803e-006 3.04112e-006 0 0 0 -3.97569e-016 3.97569e-016 -0 
0.163965 16.6779 -0.151882 -0.257574 7.62516 -2.03436 0 0 0 -0.299681 5.35791 18.0368 1.36306 -1.79463 0.83929 -19.0392 -46.238 4.31713 2.44811 -6.72613 0 11.6751 40.6202 7.0276 2.5622 -7.03959 0 1.10568 -4.63094 -5.58359 0.15764 -0.43311 2.32255 1.10348e-031 9.93923e-016 -6.36111e-015 0 0 0 -8.85582 0.425549 -20.6242 -1.30552 -1.79463 0.83929 49.6959 -25.8291 22.4607 -2.54253 -6.98555 -8.88178e-016 -8.29627 54.8337 -12.8712 -2.56826 -7.05623 -1.11022e-016 1.89182 -2.25978 6.67669 -0.16473 -0.45259 2.36315 0.00606296 0.00719137 -0.00231567 0 0 0 -1.93281 -2.12354 0.12108 0.02827 2.03559 -0.19338 10.3758 18.9314 0.696274 0.05672 2.04885 -0.04275 -3.18232 -5.32439 0.79275 0 0 0 -1.17683 -10.3333 0.0420787 -0.05417 1.74624 0.17202 2.21244 26.4926 -1.14821 0.10407 1.76136 -0.12397 0.487695 0.919268 0.0603826 0 0 0 19.8725 -5.15742 26.2541 3.36241 1.20089 -0.31121 -92.1615 9.14918 0.381105 4.983 -1.77636e-015 4.44089e-016 -15.8138 16.8801 -34.1727 3.48356 8.88178e-016 -1.77636e-015 -2.88784 -1.10928 2.74974 0 0 0 -0.121028 -1.13371e-006 -1.14814 0.71526 8.88178e-016 -8.88178e-016 3.97569e-016 1.19271e-015 6.36111e-015 0 0 0 -5.96354e-016 -1.19271e-015 -0 0 0 0 -29.0754 -6.11374 -32.1833 -3.1366 1.37405 -0.40465 106.168 0.553264 3.39168 -5.2419 8.88178e-016 0 7.57074 18.3701 1.9975 -3.44417 0 2.22045e-016 7.44223 1.60109 7.85152 0 0 0 0.388195 -3.8339e-006 2.4941 -0.62253 -2.22045e-016 0 -4.17485e-006 2.99803e-006 3.04112e-006 0 0 0 -0 0 1.59028e-015 
0.158287 16.671 -0.225909 -0.372123 7.06223 -2.19245 0 0 0 -0.299681 5.35791 18.0368 1.36306 -1.79463 0.83929 -18.6171 -46.0416 4.58328 2.44811 -6.72613 0 11.7651 40.6901 7.03228 2.5622 -7.03959 -4.44089e-016 1.13909 -4.46541 -5.52119 0.15764 -0.43311 2.32255 -5.96354e-016 -1.98785e-016 -9.54166e-015 0 0 0 -8.85582 0.425549 -20.6242 -1.30552 -1.79463 0.83929 49.6521 -25.542 22.2584 -2.54253 -6.98555 -8.88178e-016 -8.26126 54.8536 -12.8085 -2.56826 -7.05623 1.66533e-016 1.73683 -2.02084 6.57057 -0.16473 -0.45259 2.36315 0.00606296 0.00719137 -0.00231567 0 0 0 -1.93281 -2.12354 0.12108 0.02827 2.03559 -0.19338 10.4706 18.9858 0.760577 0.05672 2.04885 -0.04275 -3.24652 -5.33256 0.842864 0 0 0 -1.21337 -10.5431 0.0572629 -0.05417 1.74624 0.17202 2.16151 26.284 -1.11455 0.10407 1.76136 -0.12397 0.5663 0.708338 0.0933313 0 0 0 19.7216 -5.11051 26.3128 3.36241 1.20089 -0.31121 -91.5575 8.73822 1.93187 4.983 0 4.44089e-016 -15.585 17.7529 -35.0645 3.48356 0 8.88178e-016 -2.82465 -1.07622 2.6356 0 0 0 -0.121028 -1.13371e-006 -1.14814 0.71526 -8.88178e-016 -8.88178e-016 9.93923e-016 -3.97569e-016 -9.54166e-015 0 0 0 7.95139e-016 3.97569e-016 -0 0 0 0 -29.084 -6.30482 -32.0353 -3.1366 1.37405 -0.40465 105.689 0.0867435 2.94419 -5.2419 0 4.44089e-016 7.57057 18.3314 2.0084 -3.44417 0 1.11022e-016 7.0916 1.64297 7.98134 0 0 0 0.388195 -3.8339e-006 2.4941 -0.62253 0 0 -4.17485e-006 2.99803e-006 3.04112e-006 0 0 0 -3.97569e-016 -7.95139e-016 -1.59028e-015 
0.150269 16.663 -0.301757 -0.503789 6.52611 -2.14308 0 0 0 -0.299681 5.35791 18.0368 1.36306 -1.79463 0.83929 -18.2491 -45.9363 4.83012 2.44811 -6.72613 0 11.8152 40.8281 6.84113 2.5622 -7.03959 0 1.27831 -4.28955 -5.44781 0.15764 -0.43311 2.32255 -1.98785e-016 -1.19271e-015 -9.54166e-015 0 0 0 -8.85582 0.425549 -20.6242 -1.30552 -1.79463 0.83929 49.605 -25.2811 22.0734 -2.54253 -6.98555 -8.88178e-016 -8.20505 54.82 -12.9408 -2.56826 -7.05623 -3.88578e-016 1.66042 -1.78652 6.4739 -0.16473 -0.45259 2.36315 0.00606296 0.00719137 -0.00231567 0 0 0 -1.93281 -2.12354 0.12108 0.02827 2.03559 -0.19338 10.5703 19.3187 0.747764 0.05672 2.04885 -0.04275 -3.24818 -5.29197 0.851667 0 0 0 -1.23616 -10.7516 0.0537522 -0.05417 1.74624 0.17202 2.13498 26.0755 -1.10453 0.10407 1.76136 -0.12397 0.631807 0.0887392 0.0902886 0 0 0 19.5673 -4.91472 26.2513 3.36241 1.20089 -0.31121 -90.8934 8.45206 3.08895 4.983 0 4.44089e-016 -15.5432 18.4008 -36.1099 3.48356 -8.88178e-016 0 -2.70836 -1.0322 2.48832 0 0 0 -0.121028 -1.13371e-006 -1.14814 0.71526 8.88178e-016 0 -5.96354e-016 1.19271e-015 -0 0 0 0 -5.96354e-016 -1.59028e-015 -3.18055e-015 0 0 0 -29.0484 -6.30667 -31.8306 -3.1366 1.37405 -0.40465 105.342 -0.127658 2.8729 -5.2419 0 -4.44089e-016 7.56873 17.8413 2.147 -3.44417 0 -2.22045e-016 6.73332 1.71661 8.20474 0 0 0 0.388195 -3.8339e-006 2.4941 -0.62253 0 0 -4.17485e-006 2.99803e-006 3.04112e-006 0 0 0 1.98785e-016 -7.95139e-016 -0 
0.139634 16.655 -0.377004 -0.649574 6.09577 -1.7613 0 0 0 -0.299681 5.35791 18.0368 1.36306 -1.79463 0.83929 -18.0158 -46.0129 5.0175 2.44811 -6.72613 1.77636e-015 11.7919 41.0538 6.34866 2.5622 -7.03959 0 1.59087 -4.09539 -5.35694 0.15764 -0.43311 2.32255 -2.98177e-016 -9.93923e-016 -3.18055e-015 0 0 0 -8.85582 0.425549 -20.6242 -1.30552 -1.79463 0.83929 49.5779 -25.1109 21.9527 -2.54253 -6.98555 1.77636e-015 -8.12442 54.7005 -13.3679 -2.56826 -7.05623 6.66134e-016 1.71519 -1.56103 6.39219 -0.16473 -0.45259 2.36315 0.00606296 0.00719137 -0.00231567 0 0 0 -1.93281 -2.12354 0.12108 0.02827 2.03559 -0.19338 10.6628 19.8513 0.65943 0.05672 2.04885 -0.04275 -3.186 -5.23618 0.815304 0 0 0 -1.25611 -10.9914 0.0206283 -0.05417 1.74624 0.17202 2.12577 25.8346 -1.12648 0.10407 1.76136 -0.12397 0.7433 -0.803021 0.00124265 0 0 0 19.414 -4.65607 26.1093 3.36241 1.20089 -0.31121 -90.2216 8.31437 3.84292 4.983 -1.77636e-015 -8.88178e-016 -15.6252 18.924 -37.2852 3.48356 8.88178e-016 0 -2.55179 -1.00084 2.39493 0 0 0 -0.121028 -1.13371e-006 -1.14814 0.71526 0 0 -3.97569e-016 0 -3.18055e-015 0 0 0 3.97569e-016 0 -0 0 0 0 -28.9551 -6.1936 -31.6075 -3.1366 1.37405 -0.40465 105.071 -0.175678 3.07097 -5.2419 0 4.44089e-016 7.56875 16.8983 2.41254 -3.44417 0 2.22045e-016 6.40979 1.81267 8.49586 0 0 0 0.388195 -3.8339e-006 2.4941 -0.62253 0 0 -4.17485e-006 2.99803e-006 3.04112e-006 0 0 0 5.96354e-016 7.95139e-016 1.59028e-015 
